# MagicaVoxel @ Ephtracy

# group
o 

# material
mtllib galeria.mtl
usemtl palette

# normals
vn -1 0 0
vn 1 0 0
vn 0 0 1
vn 0 0 -1
vn 0 -1 0
vn 0 1 0

# texcoords
vt 0.0371094 0.5
vt 0.208984 0.5
vt 0.306641 0.5
vt 0.373047 0.5

# verts
v -12.8 0 12.8
v -12.8 0 -12.8
v -12.8 25.6 12.8
v -12.8 25.6 -12.8
v 12.6 0.3 12.5
v 12.6 0.3 -12.6
v 12.6 25.4 12.5
v 12.6 25.4 -12.6
v -12.6 0.3 12.5
v -12.6 0.3 -12.6
v -12.6 25.4 12.5
v -12.6 25.4 -12.6
v 12.8 0 12.8
v 12.8 0 -12.8
v 12.8 25.6 12.8
v 12.8 25.6 -12.8
v -12.8 0 12.8
v -12.8 25.6 12.8
v 12.8 0 12.8
v 12.8 25.6 12.8
v -12.6 0.3 -12.6
v -12.6 25.4 -12.6
v 12.6 0.3 -12.6
v 12.6 25.4 -12.6
v -12.6 0.3 12.5
v -12.6 25.4 12.5
v 12.6 0.3 12.5
v 12.6 25.4 12.5
v -12.8 0 -12.8
v -12.8 25.6 -12.8
v 12.8 0 -12.8
v 12.8 25.6 -12.8
v -12.8 0 12.8
v 12.8 0 12.8
v -12.8 0 -12.8
v 12.8 0 -12.8
v -12.6 25.4 12.5
v 12.6 25.4 12.5
v -12.6 25.4 -12.6
v 12.6 25.4 -12.6
v -12.6 0.3 12.5
v 12.6 0.3 12.5
v -12.6 0.3 -12.6
v 12.6 0.3 -12.6
v -12.8 25.6 12.8
v 12.8 25.6 12.8
v -12.8 25.6 -12.8
v 12.8 25.6 -12.8

# faces
f 3/3/1 2/3/1 1/3/1
f 4/3/1 2/3/1 3/3/1
f 7/4/1 6/4/1 5/4/1
f 8/4/1 6/4/1 7/4/1
f 9/4/2 10/4/2 11/4/2
f 11/4/2 10/4/2 12/4/2
f 13/3/2 14/3/2 15/3/2
f 15/3/2 14/3/2 16/3/2
f 19/3/3 18/3/3 17/3/3
f 20/3/3 18/3/3 19/3/3
f 23/4/3 22/4/3 21/4/3
f 24/4/3 22/4/3 23/4/3
f 25/4/4 26/4/4 27/4/4
f 27/4/4 26/4/4 28/4/4
f 29/3/4 30/3/4 31/3/4
f 31/3/4 30/3/4 32/3/4
f 35/3/5 34/3/5 33/3/5
f 36/3/5 34/3/5 35/3/5
f 39/4/5 38/4/5 37/4/5
f 40/4/5 38/4/5 39/4/5
f 41/1/6 42/1/6 43/1/6
f 43/1/6 42/1/6 44/1/6
f 45/3/6 46/3/6 47/3/6
f 47/3/6 46/3/6 48/3/6
